#!OML:ASF F:\VICON\USERDATA\INSTALL\rory3\rory3.ASF
:FULLY-SPECIFIED
:DEGREES
1119
root 2.55648 18.057 0.973437 0.0504102 34.2041 -13.7398
lowerback 5.73026 3.17863 -0.0424396
upperback 0.117839 4.10804 -5.08271
thorax -2.71603 2.03482 -5.5744
lowerneck -22.8164 -12.9234 -12.5703
upperneck 13.7671 -16.88 15.0177
head 10.5751 -6.96202 4.41817
rclavicle 1.04958e-013 9.54166e-015
rhumerus 43.5783 -26.2268 -22.6075
rradius 43.3253
rwrist 33.3175
rhand -58.9352 -8.24771
rfingers 7.12502
rthumb -31.1375 -35.6229
lclavicle 1.04958e-013 9.54166e-015
lhumerus -40.6062 12.9641 53.8425
lradius 39.8971
lwrist -3.67108
lhand -14.9365 23.2732
lfingers 7.12502
lthumb 11.226 52.9528
rfemur -4.90801 -7.98573 23.2975
rtibia 21.9716
rfoot -21.3833 -25.7473
rtoes 2.91239
lfemur -20.7918 -8.96948 -3.33812
ltibia 28.258
lfoot -13.7432 -16.2117
ltoes -10.3769
1120
root 2.55139 18.0554 0.978235 0.0745738 34.2294 -13.7354
lowerback 5.65709 3.12195 0.128112
upperback 0.105136 4.04655 -5.00322
thorax -2.68789 2.00229 -5.57801
lowerneck -22.7565 -12.9583 -12.5572
upperneck 13.7801 -16.9498 15.0461
head 10.5819 -6.99254 4.41357
rclavicle 4.77083e-015 -3.18055e-014
rhumerus 44.949 -28.1634 -24.825
rradius 42.8037
rwrist 32.4633
rhand -58.8128 -8.26392
rfingers 7.12502
rthumb -31.0209 -35.6614
lclavicle 4.77083e-015 -3.18055e-014
lhumerus -40.5168 13.1719 53.9252
lradius 39.5159
lwrist -3.78863
lhand -14.8774 23.3859
lfingers 7.12502
lthumb 11.283 53.0624
rfemur -4.79108 -8.02006 23.3453
rtibia 21.7165
rfoot -21.5427 -25.8068
rtoes 3.42612
lfemur -20.8456 -9.03738 -3.29165
ltibia 28.3628
lfoot -13.3673 -16.2256
ltoes -8.43374
1121
root 2.54503 18.0559 0.983566 0.118996 34.2201 -13.6522
lowerback 5.63042 3.09349 0.207987
upperback 0.0811776 4.01436 -4.95302
thorax -2.69895 1.98467 -5.56727
lowerneck -22.6914 -12.9828 -12.5397
upperneck 13.7794 -17.018 15.1283
head 10.5889 -7.017 4.42789
rclavicle 4.92986e-014 3.81667e-014
rhumerus 46.2851 -29.9297 -27.1571
rradius 42.4135
rwrist 31.7076
rhand -58.7674 -8.25569
rfingers 7.12502
rthumb -30.9776 -35.6614
lclavicle 4.92986e-014 3.81667e-014
lhumerus -40.4078 13.4389 53.9578
lradius 39.1309
lwrist -4.04839
lhand -15.0958 23.4605
lfingers 7.12502
lthumb 11.0723 53.1484
rfemur -4.6972 -8.01467 23.3182
rtibia 21.5492
rfoot -21.6163 -25.8678
rtoes 3.24552
lfemur -20.8296 -9.19686 -3.31627
ltibia 28.3888
lfoot -13.2502 -16.0552
ltoes -7.5655
1122
root 2.53728 18.0553 0.989408 0.205124 34.2 -13.5841
lowerback 5.52948 3.07569 0.276831
upperback 0.0516035 3.99778 -4.87025
thorax -2.6758 1.97547 -5.51211
lowerneck -22.5027 -13.039 -12.5929
upperneck 13.6324 -17.0995 15.21
head 10.5298 -7.06278 4.45361
rclavicle 0 -6.36111e-014
rhumerus 47.443 -31.4279 -29.2117
rradius 42.177
rwrist 30.8674
rhand -58.7495 -8.79535
rfingers 7.12502
rthumb -30.9606 -36.2043
lclavicle 0 -6.36111e-014
lhumerus -40.3085 13.6598 54.1039
lradius 38.8317
lwrist -4.31109
lhand -15.2997 23.482
lfingers 7.12502
lthumb 10.8757 53.1804
rfemur -4.6896 -8.0464 23.326
rtibia 21.4362
rfoot -21.6066 -25.9148
rtoes 2.77802
lfemur -20.8704 -9.18845 -3.33896
ltibia 28.3584
lfoot -13.4555 -16.0103
ltoes -8.7407
1123
root 2.52886 18.0531 0.998461 0.186066 34.1646 -13.6239
lowerback 5.40425 3.07799 0.401251
upperback 0.05313 4.0134 -4.76823
thorax -2.60128 1.98304 -5.46715
lowerneck -22.3466 -13.1152 -12.6361
upperneck 13.5503 -17.2167 15.2818
head 10.503 -7.12154 4.46576
rclavicle -6.52014e-014 1.27222e-014
rhumerus 48.3893 -32.7527 -31.047
rradius 42.0213
rwrist 29.9848
rhand -58.7575 -10.0517
rfingers 7.12502
rthumb -30.9683 -37.4593
lclavicle -6.52014e-014 1.27222e-014
lhumerus -40.189 13.6554 54.3775
lradius 38.7052
lwrist -4.34375
lhand -15.4469 23.6528
lfingers 7.12502
lthumb 10.7337 53.3586
rfemur -4.6469 -8.02543 23.4374
rtibia 21.3885
rfoot -21.7634 -25.9344
rtoes 2.78643
lfemur -20.8386 -9.03895 -3.2842
ltibia 28.2774
lfoot -13.8041 -16.1063
ltoes -10.4424
